<?xml version="1.0" standalone="no"?>
<!DOCTYPE svg PUBLIC "-//W3C//DTD SVG 20010904//EN"
 "http://www.w3.org/TR/2001/REC-SVG-20010904/DTD/svg10.dtd">
<svg version="1.0" xmlns="http://www.w3.org/2000/svg"
 width="700.000000pt" height="700.000000pt" viewBox="0 0 700.000000 700.000000"
 preserveAspectRatio="xMidYMid meet">
<metadata>
Created by potrace 1.11, written by Peter Selinger 2001-2013
</metadata>
<g transform="translate(0.000000,700.000000) scale(0.100000,-0.100000)"
fill="#000000" stroke="none">
<path d="M370 3500 l0 -3130 3130 0 3130 0 0 3130 0 3130 -3130 0 -3130 0 0
-3130z m6150 0 l0 -3020 -3020 0 -3020 0 0 3020 0 3020 3020 0 3020 0 0 -3020z"/>
<path d="M3340 3350 c-411 -70 -669 -273 -751 -587 -25 -97 -27 -268 -5 -363
46 -200 172 -349 381 -450 116 -57 173 -76 350 -118 72 -18 211 -51 310 -75
249 -60 332 -106 377 -205 24 -54 27 -162 5 -214 -22 -51 -83 -116 -137 -143
-92 -46 -156 -59 -295 -59 -184 0 -279 30 -377 122 -55 51 -87 108 -113 195
l-17 57 -281 -2 -282 -3 4 -45 c9 -113 68 -276 138 -378 38 -56 126 -146 188
-193 248 -187 699 -256 1083 -164 503 121 773 512 665 965 -50 211 -216 363
-503 458 -52 18 -230 63 -394 102 -325 76 -395 101 -470 170 -61 56 -80 109
-74 204 4 56 11 85 31 119 65 110 199 171 377 171 240 0 408 -120 451 -321
l11 -53 269 0 270 0 -7 63 c-16 144 -71 290 -150 398 -81 110 -240 229 -374
280 -147 56 -236 71 -435 75 -104 1 -215 -1 -245 -6z"/>
<path d="M5970 3341 c-98 -26 -167 -67 -246 -147 -74 -73 -146 -195 -160 -270
-16 -86 -24 -30 -24 170 l0 216 -280 0 -280 0 0 -1290 0 -1290 288 2 287 3 5
840 5 840 27 73 c73 200 205 305 416 332 69 9 196 2 280 -16 l32 -6 0 270 0
270 -50 11 c-76 16 -225 12 -300 -8z"/>
</g>
</svg>
